# xmcd
#
# Track frame offsets:
#	150
#	12700
#	23812
#	36620
#	50035
#	64107
#	77252
#	90045
#	102820
#	115537
#	128350
#	141470
#	154792
#	164910
#	177887
#	190927
#	200747
#	210922
#	221552
#	234435
#	248017
#	260915
#	274705
#	286565
#	297437
#	310200
#	324060
#	337965
#
# Disc length: 4680 seconds
#
# Revision: 0
# Processed by: cddbd v1.5.2PL0 Copyright (c) Steve Scherf et al.
# Submitted via: audiograbber 1.83.01
#
DISCID=8d12461c
DTITLE=Russ Conway - Russ Conway plays piano pops
DYEAR=1900
DGENRE=Easy Listening
TTITLE0=Piano Pops No.1 (part one) Around The World ;Tammy - We Will Make Love
TTITLE1=Piano Pops No.1 (part two) Love Letters In The Sand - In The Middle Of A
TTITLE1=n Island - Bye Bye Love
TTITLE2=Piano Pops No.2 (part one) Ma (He's Making Eyes At Me) - Wake Up Little 
TTITLE2=Suzie - Alone
TTITLE3=Piano Pops No.2 (part two) All The Way - I'llBuy You A Star;My Special A
TTITLE3=ngel
TTITLE4=Piano Pops No.3 (part one) Love Me Forever - April Love - Magic Moments
TTITLE5=Piano Pops No.3 (part two) The Story Of My Life - Sugartime - Mandy (The 
TTITLE5=Pansy)
TTITLE6=Piano Pops No.4 (part one) Nairobi - Oh Oh I'm Falling In Love Again
TTITLE7=Piano Pops No.4 (part two) Why Don't They Understand;Catch A Falling St
TTITLE7=ar;I May Never Pass This Way Again
TTITLE8=Piano Pops No.5 (part one) Lollipop - Wear My Ring Around Your Neck - Kew
TTITLE8=pie Doll
TTITLE9=Piano Pops No.5 (part two) Stairway Of Love - Tulips From Amsterdam - All
TTITLE9=I Have To Do Is Dream
TTITLE10=Piano Pops No.6 (part one) The Only Man On The Island - Big Man - On The
TTITLE10=Street Where You Live
TTITLE11=Piano Pops No.6 (part two) A Very Precious Love - Twilight Time - Sugarm
TTITLE11=oon
TTITLE12=Piano Pops No.7 (part one) Tom Dooley - You Always Hurt The One You Lov
TTITLE12=e - Someday
TTITLE13=Piano Pops No.7 (part two) A Certain Smile - More Than Ever - My Happine
TTITLE13=ss
TTITLE14=Piano Pops No.8 (part one) As I Love You - Gigi - Smoke Gets In Your Eye
TTITLE14=s
TTITLE15=Piano Pops No.8 (part two) Kiss Me Honey Honey (Kiss Me);Does Your Che
TTITLE15=wing Gum Lose It's Flavour On The Bedpost Over Night? - Tomboy
TTITLE16=Piano Pops No.9 (part one) Come Softly To Me;If I Didn't Care - Wait fo
TTITLE16=r Me (ti Diro)
TTITLE17=Piano Pops No.9 (part two) It Doesn't Matter Anymore - Sing Little Bird
TTITLE17=ie - Standing On The Corner
TTITLE18=Piano Pops No.10 (part one) Delaware;Clementine - Looking High, High, H
TTITLE18=igh
TTITLE19=Piano Pops No.10 (part two) Do You Mind - Someone Else's Baby - Standing
TTITLE19=On The Corner
TTITLE20=Liverpool Pops (part one) Please Please Me - Thank You Girl - Do You Wan
TTITLE20=t To Know A Secret
TTITLE21=Liverpool Pops (part two) From Me To You - How Do You Do It? - I Like It
TTITLE22=Conway Capers No. 1 (part one) It's My Party - I'll Never Get Over You;
TTITLE22=She Loves You
TTITLE23=Conway Capers No. 1 (part two) If I Had A Hammer - Bad To Me - Sweet for
TTITLE23=My Sweet
TTITLE24=Conway Capers No. 2 (part one) Tell Me When - Don't Throw Your Love Awa
TTITLE24=y - Can't Buy Me Love
TTITLE25=Conway Capers No. 2 (part two) I LOve You Because - A World Without Lov
TTITLE25=e - Don't Let The Sun Catch You Crying
TTITLE26=Swinging Pops (part two) Yeh Yeh;Lovers Of The World Unite - You're Got
TTITLE26=Your Troubles
TTITLE27=Swinging Pops (part one) Downtown - I Couldn't Live Without our Love - I
TTITLE27=Know A Place
EXTD=
EXTT0=
EXTT1=
EXTT2=
EXTT3=
EXTT4=
EXTT5=
EXTT6=
EXTT7=
EXTT8=
EXTT9=
EXTT10=
EXTT11=
EXTT12=
EXTT13=
EXTT14=
EXTT15=
EXTT16=
EXTT17=
EXTT18=
EXTT19=
EXTT20=
EXTT21=
EXTT22=
EXTT23=
EXTT24=
EXTT25=
EXTT26=
EXTT27=
PLAYORDER=
